<svg xmlns="http://www.w3.org/2000/svg" viewBox="0 0 16 16" shape-rendering="crispEdges"><rect x="1" y="0" width="14" height="1" fill="#2a7fb0"/><rect x="0" y="1" width="11" height="1" fill="#2a7fb0"/><rect x="11" y="1" width="3" height="1" fill="#e8b24a"/><rect x="14" y="1" width="2" height="1" fill="#2a7fb0"/><rect x="0" y="2" width="9" height="1" fill="#2a7fb0"/><rect x="9" y="2" width="6" height="1" fill="#e8b24a"/><rect x="15" y="2" width="1" height="1" fill="#2a7fb0"/><rect x="0" y="3" width="8" height="1" fill="#2a7fb0"/><rect x="8" y="3" width="5" height="1" fill="#e8b24a"/><rect x="13" y="3" width="2" height="1" fill="#b8742a"/><rect x="15" y="3" width="1" height="1" fill="#2a7fb0"/><rect x="0" y="4" width="7" height="1" fill="#2a7fb0"/><rect x="7" y="4" width="4" height="1" fill="#e8b24a"/><rect x="11" y="4" width="2" height="1" fill="#b8742a"/><rect x="13" y="4" width="1" height="1" fill="#2a7fb0"/><rect x="14" y="4" width="1" height="1" fill="#b8742a"/><rect x="15" y="4" width="1" height="1" fill="#2a7fb0"/><rect x="0" y="5" width="3" height="1" fill="#2a7fb0"/><rect x="3" y="5" width="2" height="1" fill="#f4ead3"/><rect x="5" y="5" width="1" height="1" fill="#2a7fb0"/><rect x="6" y="5" width="3" height="1" fill="#e8b24a"/><rect x="9" y="5" width="2" height="1" fill="#b8742a"/><rect x="11" y="5" width="1" height="1" fill="#2a7fb0"/><rect x="12" y="5" width="1" height="1" fill="#b8742a"/><rect x="13" y="5" width="3" height="1" fill="#2a7fb0"/><rect x="0" y="6" width="2" height="1" fill="#2a7fb0"/><rect x="2" y="6" width="5" height="1" fill="#f4ead3"/><rect x="7" y="6" width="2" height="1" fill="#e8b24a"/><rect x="9" y="6" width="1" height="1" fill="#b8742a"/><rect x="10" y="6" width="1" height="1" fill="#2a7fb0"/><rect x="11" y="6" width="2" height="1" fill="#f4ead3"/><rect x="13" y="6" width="3" height="1" fill="#2a7fb0"/><rect x="0" y="7" width="1" height="1" fill="#2a7fb0"/><rect x="1" y="7" width="13" height="1" fill="#f4ead3"/><rect x="14" y="7" width="2" height="1" fill="#2a7fb0"/><rect x="0" y="8" width="2" height="1" fill="#2a2540"/><rect x="2" y="8" width="13" height="1" fill="#f4ead3"/><rect x="15" y="8" width="1" height="1" fill="#2a7fb0"/><rect x="0" y="9" width="1" height="1" fill="#2a2540"/><rect x="1" y="9" width="1" height="1" fill="#f4ead3"/><rect x="2" y="9" width="2" height="1" fill="#2a2540"/><rect x="4" y="9" width="11" height="1" fill="#f4ead3"/><rect x="15" y="9" width="1" height="1" fill="#2a7fb0"/><rect x="0" y="10" width="4" height="1" fill="#2a2540"/><rect x="4" y="10" width="10" height="1" fill="#f4ead3"/><rect x="14" y="10" width="1" height="1" fill="#c9b48a"/><rect x="15" y="10" width="1" height="1" fill="#2a7fb0"/><rect x="0" y="11" width="1" height="1" fill="#2a7fb0"/><rect x="1" y="11" width="2" height="1" fill="#2a2540"/><rect x="3" y="11" width="1" height="1" fill="#2a7fb0"/><rect x="4" y="11" width="1" height="1" fill="#c9b48a"/><rect x="5" y="11" width="8" height="1" fill="#f4ead3"/><rect x="13" y="11" width="2" height="1" fill="#c9b48a"/><rect x="15" y="11" width="1" height="1" fill="#2a7fb0"/><rect x="0" y="12" width="5" height="1" fill="#2a7fb0"/><rect x="5" y="12" width="9" height="1" fill="#c9b48a"/><rect x="14" y="12" width="2" height="1" fill="#2a7fb0"/><rect x="0" y="13" width="5" height="1" fill="#2a7fb0"/><rect x="5" y="13" width="1" height="1" fill="#1d1a2c"/><rect x="6" y="13" width="1" height="1" fill="#2a7fb0"/><rect x="7" y="13" width="1" height="1" fill="#1d1a2c"/><rect x="8" y="13" width="3" height="1" fill="#2a7fb0"/><rect x="11" y="13" width="1" height="1" fill="#1d1a2c"/><rect x="12" y="13" width="1" height="1" fill="#2a7fb0"/><rect x="13" y="13" width="1" height="1" fill="#1d1a2c"/><rect x="14" y="13" width="2" height="1" fill="#2a7fb0"/><rect x="0" y="14" width="5" height="1" fill="#2a7fb0"/><rect x="5" y="14" width="1" height="1" fill="#1d1a2c"/><rect x="6" y="14" width="1" height="1" fill="#2a7fb0"/><rect x="7" y="14" width="1" height="1" fill="#1d1a2c"/><rect x="8" y="14" width="3" height="1" fill="#2a7fb0"/><rect x="11" y="14" width="1" height="1" fill="#1d1a2c"/><rect x="12" y="14" width="1" height="1" fill="#2a7fb0"/><rect x="13" y="14" width="1" height="1" fill="#1d1a2c"/><rect x="14" y="14" width="2" height="1" fill="#2a7fb0"/><rect x="1" y="15" width="14" height="1" fill="#2a7fb0"/></svg>
